<?xml version="1.0" encoding="utf-8"?>
<!-- Generator: Adobe Illustrator 24.0.0, SVG Export Plug-In . SVG Version: 6.00 Build 0)  -->
<svg version="1.1" id="Layer_1" xmlns="http://www.w3.org/2000/svg" xmlns:xlink="http://www.w3.org/1999/xlink" x="0px" y="0px"
	 viewBox="0 0 500 500" style="enable-background:new 0 0 500 500;" xml:space="preserve">
<style type="text/css">
	.st0{fill:#FFFFFF;}
	.st1{opacity:0.7;}

	#leftEar, #rightEar, #face, #sideface, #facenNeck, #tail1, #tail2, #tail3, #tail4, #tail5, #tail6 {
	  transform-box: fill-box;
	  -webkit-backface-visibility: hidden;
	}

</style>
<filter id="dropshadow" height="130%">
  <feGaussianBlur in="SourceAlpha" stdDeviation="5"/>
  <feComponentTransfer>
    <feFuncA type="linear" slope="0.3"/>
  </feComponentTransfer>
  <feMerge> 
    <feMergeNode/> <!-- this contains the offset blurred image -->
    <feMergeNode in="SourceGraphic"/> <!-- this contains the element that the filter is applied to -->
  </feMerge>
</filter>
<g style="filter:url(#dropshadow)">
<g>
	<path class="st0" d="M138.8,177.8c48.9-11.7,100.1-1.4,149.3,9.4c10.8,2.4,22.2,5.1,30.1,12.8c10.9,10.6,12.3,27.4,11.5,42.6
		c-0.3,6.4-1,13-3.4,18.9c-4.1,10.1-13.2,17.6-23.2,21.9c-10,4.3-21,5.7-31.9,6.6c-42.1,3.3-84.5-1.8-126.3-7.9
		c-8.7-1.3-17.5-2.6-25.7-5.7c-8.2-3.1-15.9-8.2-20.7-15.5c-3.1-4.8-4.8-10.3-5.9-15.9c-2.8-14.3-1.7-29.4,3.3-43.1
		c3.6-9.8,9.9-19.7,19.9-22.9L138.8,177.8z"/>
</g>
<g>
	<path class="st0" d="M327.8,229.3c0.8,13.8-1.2,27.8-5.8,40.9c-2.7,7.5-6.2,14.7-8.2,22.4c-3.1,12-2.2,25,2.5,36.4
		c1.2,3,2.7,6.1,2.1,9.2c-0.6,3.4-3.5,5.9-6.2,8.1c-5.9,4.8-11.9,9.4-18,13.9c-3.7,2.7-7.5,5.5-11.7,7.1c-8.6,3.4-18.3,2.3-27.5,1.1
		c-1.6-0.2-3.5-0.5-4.4-1.9c-0.5-0.8-0.6-1.9-0.4-2.8c0.5-2.8,3.1-4.8,5.8-5.8c2.7-1,6.6-3.6,8.8-5.4c8.5-7.3,13.2-9.4,18.1-18.4
		c0.8-1.4,1.5-2.8,1.5-4.4c0-1.2-0.5-2.4-1-3.5c-4.1-7.8-10.7-12.1-16.6-18.8c-7.5-8.7-9.8-21-8.1-32.4c1.6-11.4,6.7-21.9,12.4-31.9
		L327.8,229.3z"/>
</g>
<g class="st1">
	<path class="st0" d="M217.2,261.3c0.9,16.5,12.8,38.5,25.2,49.4c3.7,3.3,6,5.7,7.1,10.5c0.6,2.5,0.2,5.1-0.4,7.6
		c-2.3,10.1-7.6,13.4-14.9,20.7c-4.2,4.1-8.6,7.4-10.6,11s-0.4,6.6,2.9,6.7c3.2,0.1,8.3-0.4,12.9-1.1c2.6-0.4,5.2-0.9,7.6-2
		c3-1.4,7.3-5,9.3-7.6c7.4-9.4,8.7-9.3,15.1-19.4c5.6-8.8,10.1-9,11.5-19.3c1.2-8.5-3.7-9.7-6.9-22.6c-2.8-11.5-3.9-34.7-4.8-42.3
		L217.2,261.3z"/>
</g>
<g>
	<path class="st0" d="M136.9,265.9c-0.1,7.5-0.3,15.1-0.4,22.6c-0.2,10.9-0.4,21.8-2,32.6c-1.8,11.8-5.3,23.4-10.3,34.2
		c-2.1,4.4-4.4,9.5-2.3,13.9c1.3,2.6,3.9,4.4,6.8,5c7.6,1.8,15.5-3.5,19.5-10.2s5.2-14.8,7-22.4c6.3-26,20.9-49.5,26.3-75.7
		L136.9,265.9z"/>
</g>
<g class="st1">
	<path class="st0" d="M99.3,253.4c4.6,9.8,8.1,20.2,10.1,30.9c1.6,8.1,2.4,16.4,3.2,24.6c1.2,12.5,0.5,25.1-1,37.5
		c-0.6,5.2-9,8.4-9.4,13.1s2.4,7.3,9.2,7.9c6.8,0.6,10.3-3.8,14.4-8.1c4.2-4.4,6-10.1,8.3-15.7c2.1-5.2,2.6-10.9,3.1-16.5
		c2.5-27.8,1.2-51.2,1.3-79.1L99.3,253.4z"/>
</g>
<g id="tail6">
	<path class="st0" d="M299.6,190.1c2.5,0,5,0.3,7.2,0.9c2.2,0.5,4.3,1.3,6.1,2.1c3.7,1.6,6.7,3.6,9.5,5.6c2.7,2,5.1,4.1,7.3,6.2
		c2.3,2.2,4.5,4.5,6.5,6.8c4.1,4.7,7.6,9.8,10.6,14.9c1.5,2.6,2.9,5.1,4.2,7.5c1.3,2.4,2.7,4.9,4,7.3c4.1,7.3,1.6,16.5-5.7,20.6
		c-7.3,4.1-16.5,1.6-20.6-5.7c-0.3-0.5-0.5-0.9-0.7-1.4l-0.1-0.3c-1-2.3-2-4.6-3.1-6.9c-1.1-2.3-2.2-4.5-3.3-6.5
		c-2.2-4.1-4.6-7.8-7.3-11.2c-1.3-1.7-2.7-3.3-4.2-4.8c-1.6-1.6-3.1-3.1-4.6-4.3c-1.5-1.2-2.9-2.1-4-2.7c-1.1-0.6-1.8-0.7-2-0.8
		l-4.1-1.4c-7-2.3-10.8-9.8-8.4-16.8C288.7,193.6,294,190,299.6,190.1z"/>
	<g id="tail5">
		<path class="st0" d="M355,241.4c2.7,6,5.2,11.9,7.7,17.4c1.3,2.8,2.6,5.5,3.9,8.1c1.3,2.7,2.8,5.1,4.1,7.7l0.4,0.8
			c3.5,6.7,1,14.9-5.7,18.4c-6.2,3.3-13.8,1.3-17.6-4.4c-2-2.9-4-5.9-5.7-8.8c-1.8-3-3.4-5.9-5-8.9c-3.2-5.9-6.1-11.7-9.1-17.2
			c-3.9-7.3-1.1-16.4,6.2-20.3s16.4-1.1,20.3,6.2C354.7,240.8,354.8,241.1,355,241.4L355,241.4z"/>
		<g id="tail4">
			<path class="st0" d="M384.9,321.8c-2.4,0-4.8-0.6-6.9-1.9c-11.4-6.7-21.2-16.7-30.1-30.4c-4.1-6.3-2.3-14.8,4.1-18.9
				c6.3-4.1,14.8-2.3,18.9,4.1c6.5,10.1,13.4,17.2,21.1,21.7c6.5,3.8,8.6,12.2,4.8,18.7C394.1,319.4,389.6,321.8,384.9,321.8z"/>
			<g id="tail3">
				<path class="st0" d="M414.6,329.8c-12.9,0-25.7-3.4-36.6-9.9c-6.5-3.8-8.6-12.2-4.8-18.7c3.8-6.5,12.2-8.6,18.7-4.8
					c8.2,4.9,18.1,6.9,27.9,5.8c7.5-0.9,14.3,4.5,15.1,12c0.9,7.5-4.5,14.3-12,15.1C420.1,329.6,417.3,329.8,414.6,329.8z"/>
				<g id="tail2">
					<path class="st0" d="M419.7,302.2c2-0.2,4-0.5,6-1c2-0.5,3.9-1.1,5.7-1.8c1.7-0.7,3.3-1.5,4.5-2.3c0.6-0.4,1.2-0.9,1.6-1.3
						c0.4-0.4,1.7-1.5,2.5-2.3c5.1-5.1,11.6-5.9,17.4-1.5c5.6,4.4,6.7,12.4,2.6,18.2c-1.2,1.7-2.6,3.3-4.1,4.8
						c-1.5,1.4-3,2.7-4.5,3.8c-3.1,2.3-6.3,4-9.5,5.4c-3.2,1.4-6.3,2.4-9.5,3.3c-3.2,0.9-6.4,1.5-9.7,1.9l-0.1,0
						c-7.5,0.9-14.3-4.4-15.2-11.9s4.4-14.3,11.9-15.2C419.5,302.2,419.6,302.2,419.7,302.2z"/>
					<g id="tail1">
						<path class="st0" d="M440.1,293.4c1-0.9,2.1-2.6,2.8-4.1c0.7-1.5,1.2-3.3,1.4-5.1c0.4-3.6-0.3-7.4-2.2-10.3l-0.5-0.7
						c-2.9-4.5-1.6-10.6,2.9-13.5c3.9-2.5,9-1.9,12.2,1.3c3,3,5.5,6.6,7.2,10.5c1.7,3.9,2.7,8,3.1,12.1c0.4,4.2,0.1,8.4-0.8,12.6
						c-1,4.2-2.6,8.4-5.1,12.3l-1,1.5c-4,6.1-12.1,7.9-18.2,3.9c-6.1-4-8-11.7-4-17.8C438.6,295.1,439.3,294.1,440.1,293.4z"/>
					</g>
				</g>
			</g>
		</g>
	</g>
</g>
<g id="facenNeck">
	<g>
	<path class="st0" d="M77,181.6c0,5.4,2.7,8.5,6.5,15c3.2,5.5,3.3,12.1,4.9,17.5c1.8,5.9,1.9,21.1,5.8,26.3
		c5.5,7.5,13.4,5,22.3,10.4c8.9,5.4,20.3,8.8,31.7,7.8c10.6-0.9,20-5.5,27.6-11.2c9.9-7.4,17.3-17.3,17.6-27.7
		c0.3-10.7-6.7-20.8-14.9-29.6c-9.8-10.5-21.9-20-36.9-26.1c-15-6.1-33.2-8.4-49.4-4.5L77,181.6z"/>
	</g>
	<g id="face">
		<g>
			<path class="st0" d="M117.2,125.2c-11.6,0-12.6-2.2-23.6,1.4s-21.4,11.4-24.9,22.4c-2.4,7.5-1.5,15.8,1.6,23.1
				c5.8,13.9,20.5,25,13.9,18.9c1.4,1.3,3,2.7,4.8,3.5c2.5,1.1,5.4,1.1,8.1,1.1c12.4,0,25.1-0.1,36.7-4.5c11.6-4.4,22-14,23.7-26.3
				c1.6-11.5-4.8-23-13.9-30.2C134.3,127.4,128.5,127.7,117.2,125.2z"/>
		</g>
		<g id="leftEar">
			<path class="st0" d="M118,129.1c6-5.9,12.4-11.4,19.2-16.4c4.5-3.4,9.3-6.6,14.9-7.8c0.7-0.1,1.4-0.3,2,0.1
				c0.6,0.3,0.8,0.9,1.1,1.5c6.2,15.6,1.2,34.9-11.9,45.4L118,129.1z"/>
		</g>
		<g id="rightEar">
			<path class="st0" d="M74,145.9c-1-7.2-1.8-14.4-1.1-21.7s3.1-14.4,8-19.8c0.5-0.6,1.1-1.1,1.9-1.1c0.6,0.1,1,0.5,1.4,0.9
				c7.7,7.8,13.4,17.4,16.7,27.9L74,145.9z"/>
		</g>
				<g id="sideface">
			<path class="st0" d="M147.2,156.4c-3.1-8.3-11.1-13-19-15.9c-2.2-0.8-4.5-1.5-6.8-2c-1.1-0.3-2.2-0.5-3.4-0.7s-2.8-0.6-4-0.4
			c-0.6,0.1-1.2,0.4-1.8,0.5c-3.8,1.1-7.6,2.2-11.5,3.3c-8,2.3-16,4.5-23.9,6.9c-0.2,0-0.3,0.1-0.5,0.1c-0.1,0-0.2,0.1-0.4,0.1
			c-0.3,0.1-0.6,0.3-0.8,0.6c-3,3.7-3.6,8.3-3.6,12.9c0,2.5,0.1,5-0.2,7.5c-0.2,1.3-0.3,2.6-0.1,3.9c0.2,1.1,0.7,2.1,1.1,3.1
			c1.7,4,3.4,8,6.3,11.3c2.9,3.5,7,5.5,11.3,6.8c17.5,5.3,39,2.8,51.7-11.5c3-3.4,5.4-7.4,6.3-11.8
			C148.9,166.4,148.9,161,147.2,156.4z"/>
		</g>
	</g>
</g>
</g>
</svg>
