<?xml version="1.0" encoding="utf-8"?>
<!-- Generator: Adobe Illustrator 24.0.0, SVG Export Plug-In . SVG Version: 6.00 Build 0)  -->
<svg version="1.1" id="Layer_1" xmlns="http://www.w3.org/2000/svg" xmlns:xlink="http://www.w3.org/1999/xlink" x="0px" y="0px"
	 viewBox="0 0 500 500" style="enable-background:new 0 0 500 500;" xml:space="preserve">
<style type="text/css">
	.st0{fill:#FFFFFF;}
	.st1{opacity:0.7;}

		#leftEar, #rightEar, #face, #facenNeck, #tail {
	  transform-box: fill-box;
	  -webkit-backface-visibility: hidden;
	}

</style>
<filter id="dropshadow" height="130%">
  <feGaussianBlur in="SourceAlpha" stdDeviation="5"/>
  <feComponentTransfer>
    <feFuncA type="linear" slope="0.3"/>
  </feComponentTransfer>
  <feMerge> 
    <feMergeNode/> <!-- this contains the offset blurred image -->
    <feMergeNode in="SourceGraphic"/> <!-- this contains the element that the filter is applied to -->
  </feMerge>
</filter>
<g style="filter:url(#dropshadow)">
<g>
	<path class="st0" d="M361.2,212.8c-21.4-13.6-47-20.5-72.3-19.3c-8.9,0.4-17.8,1.8-26.7,1.9c-9.1,0.1-18.1-1.1-27.1-2.2
		c-19.2-2.4-38.7-4.4-57.8-1.1c-19.1,3.3-37.9,12.5-48.8,28.4c-4.9,7.2-8.2,15.9-7.1,24.5c1.5,11.9,11.1,21.6,22.2,26.3
		c11,4.7,23.4,5.2,35.4,5c12-0.2,24.1-1,35.9,1.3c15.9,3.1,30.2,11.7,45.3,17.4c27.5,10.5,59.3,11.5,85.7-1.5
		c8.6-4.2,16.8-10.1,21.5-18.5c4.2-7.5,5.4-16.2,6.1-24.8c1.1-13.6,1.2-28.1-6.1-39.7L361.2,212.8z"/>
</g>
<g>
	<path class="st0" d="M124.8,232.1c-5.5,14.5-5.6,30.9-0.3,45.5c3.1,8.5,8.1,16.5,9.1,25.5c1,9.1-2.4,18.6-9,25
		c-2.5,2.4-5.4,4.4-7.3,7.3c-2.8,4.1-3.1,9.3-3.4,14.2c-0.5,9.3-1,18.7,1.7,27.6c2.7,8.9,9.1,17.2,18.1,19.4
		c4.4,1.1,9.7,0.3,12.2-3.5c3.1-4.8,0.1-11-2.9-15.9c-3.1-5.2-6.2-10.7-7.2-16.8s0.5-12.8,5.1-16.8c4.2-3.6,10.2-4.3,15.3-6.4
		c15.4-6.2,22.5-24.1,24.4-40.6c1.9-16.5,0.4-33.6,5.9-49.2L124.8,232.1z"/>
</g>
<g class="st1">
	<path class="st0" d="M214.7,250.3c-1.8,22.8-4.1,47.2-18.7,64.9c-2.9,3.5-6.1,6.6-8.6,10.3c-7.6,11.6-5.9,28,2.8,38.9
		c2.2,2.7,4.9,5.9,3.8,9.2c-0.5,1.6-1.9,2.8-3.4,3.6c-7.7,4.3-17.9-0.4-22.8-7.8c-4.8-7.4-5.6-16.6-6.3-25.4
		c-0.5-6.8-1.1-13.6-1.6-20.4c-0.5-6.2-0.9-12.9,2.4-18.2c1.6-2.6,4-4.6,5.3-7.3c1.9-3.8,1.6-8.3,1.2-12.5
		c-1.3-15.9-2.7-31.9-4-47.8L214.7,250.3z"/>
</g>
<g>
	<path class="st0" d="M328.6,272.8c-2.2,24.8-3,49.7-2.4,74.5c0.4,14.9,1.4,30.4,9.2,43.1c1.5,2.5,3.2,5.9,1.2,8
		c-0.5,0.6-1.3,0.9-2,1.1c-8.7,3.1-18.7-1.6-24.4-9c-5.7-7.3-7.9-16.7-9.5-25.8c-4.9-27.5-6-55.4-7.1-83.3
		c-0.2-5.8-0.5-11.6-0.1-17.4L328.6,272.8z"/>
</g>
<g class="st1">
	<path class="st0" d="M365.6,250.3c-4.9,37.9-9.4,78.1,6.1,113c1.4,3.2,3,6.9,1.4,10.1c-0.9,1.8-2.8,2.9-4.7,3.5
		c-6.3,2-13.3-1.3-17.6-6.3s-6.4-11.4-8.3-17.8c-8.1-27.5-12.8-56-12.8-84.7L365.6,250.3z"/>
</g>
<g id="tail">
	<path class="st0" d="M149.8,207.8c-13.9,2.8-28.2,4-42.4,3.6c-8.8-0.3-17.9-1.3-25.6-5.6c-9.3-5.1-15.7-15-16.8-25.5
		s3.4-21.5,11.5-28.3c-18.8-0.1-35.5,16.6-37.7,35.3c-2.2,18.7,8.4,37.6,24.1,47.9c15.8,10.3,32.9,10.5,51.4,6.9
		c10.8-2.1,24.6-13.3,32.1-21.4L149.8,207.8z"/>
</g>
<g id="facenNeck">
	<g>
		<path class="st0" d="M309,195.7c13.6-5.9,24.7-16.2,36.6-25c11.9-8.8,25.8-16.5,40.6-15.8c5.1,0.2,10.2,1.5,14.1,4.7
			c3.6,3,5.9,7.4,7,11.9c3.8,15.7-5.1,31.5-14.6,44.6c-10.4,14.2-22.3,27.8-38.1,35.7c-15.7,7.9-35.8,8.8-50.1-1.4
			c-3.1-2.2-5.9-5-7.7-8.3c-1.9-3.5-2.7-7.4-3.1-11.4c-0.6-7.4,0.4-15,3-22L309,195.7z"/>
	</g>
	<g id="face">
		<g>
			<path class="st0" d="M359,169.6c4.6-16.7,23.1-26.6,40.5-26.7c13-0.1,27.7,5.9,31.4,18.4c2.3,7.9-0.1,17.2,4.8,23.8
				c3.2,4.3,8.6,6.2,13.8,7.7c5.2,1.5,10.7,2.9,14.4,6.7s4.8,10.9,0.5,14.2c-1.4,1.1-3.1,1.6-4.6,2.6c-1.6,1.1-2.7,2.8-4.1,4.3
				c-4.7,5.2-12.1,7.6-19.2,7.6c-7.1,0-14-2-20.6-4.4c-18.7-6.8-36.3-16.6-52-28.8L359,169.6z"/>
		</g>
		<g id="rightEar">
			<path class="st0" d="M386.7,152.4c0-13.7,1.1-27.4,3.4-40.9c4,10.9,8,21.8,12,32.7c1.4,3.8,2.8,7.5,3.3,11.5L386.7,152.4z"/>
		</g>
		<g class="st1" id="leftEar">
			<path class="st0" d="M402.8,152.7c8.7-11,17.4-22,26.1-33c-1.1,15.4-4.8,30.7-11,44.9L402.8,152.7z"/>
		</g>
	</g>
</g>
</g>
</svg>
