<?xml version="1.0" encoding="utf-8"?>
<!-- Generator: Adobe Illustrator 24.0.0, SVG Export Plug-In . SVG Version: 6.00 Build 0)  -->
<svg version="1.1" id="Layer_1" xmlns="http://www.w3.org/2000/svg" xmlns:xlink="http://www.w3.org/1999/xlink" x="0px" y="0px"
	 viewBox="0 0 500 500" style="enable-background:new 0 0 500 500;" xml:space="preserve">
<style type="text/css">
	.st0{fill:#FFFFFF;}
	.st1{opacity:0.7;}

		#leftEar, #rightEar, #face, #facenNeck, #neckBottom, #tail {
	  transform-box: fill-box;
	  -webkit-backface-visibility: hidden;
	}

</style>
<filter id="dropshadow" height="130%">
  <feGaussianBlur in="SourceAlpha" stdDeviation="5"/>
  <feComponentTransfer>
    <feFuncA type="linear" slope="0.3"/>
  </feComponentTransfer>
  <feMerge> 
    <feMergeNode/> <!-- this contains the offset blurred image -->
    <feMergeNode in="SourceGraphic"/> <!-- this contains the element that the filter is applied to -->
  </feMerge>
</filter>
<g style="filter:url(#dropshadow)">
<g>
	<path class="st0" d="M235.6,190.7c43,21.7,90.9,31.1,136.8,45.4c5.3,1.6,10.7,3.5,14.7,7.3c6.4,6.1,7.7,15.8,7.7,24.7
		c0,6-0.5,12.3-3.4,17.5c-3.6,6.5-10.4,10.5-17,13.9c-11.2,5.8-22.6,10.9-34.4,15.4c-17.8,6.7-37.1,11.9-55.6,7.7
		c-10.8-2.5-20.7-8-30.3-13.5c-16.8-9.5-33.6-21-50.3-30.4c-3.4-1.9-6.8-3.9-9.3-6.8c-3-3.5-4.4-8.2-4.9-12.8
		c-1.1-9,0.5-18.1,2.9-26.8c2.5-9.1,6-18,11.5-25.6c5.5-7.6,13.3-11.9,22.4-14.3L235.6,190.7z"/>
</g>
<g id="tail">
	<path class="st0" d="M389.4,247.7c4.2,4.9,6.1,11.3,7.9,17.6c5.3,19.4,9.2,39.3,16.5,58c0.9,2.2,1.8,4.5,3.3,6.4
		c1.8,2.2,4.3,3.6,6.5,5.5c9,7.6,11.4,20.4,12.1,32.1c0.7,11.7,0.4,24.1,6,34.5c-7.9-2.9-14.1-9.3-18.7-16.4
		c-7.2-11-11.2-24.1-11.3-37.3c0-4.2,0.3-8.3-0.5-12.4c-0.5-2.8-1.5-5.4-2.5-8c-9.1-24.4-18.1-48.7-27.2-73.1L389.4,247.7z"/>
</g>
<g id="neckBottom">
	<g>
		<path class="st0" d="M191.7,254.3c2-12.4,1.4-24.4-5.2-35.1c-3.1-5-6-10.5-8.7-15.8c-3.4-6.7-4.5-14.4-5.4-21.8
			c-0.6-4.8-1.1-10.2,1.7-14.2c3.2-4.6,9.5-5.7,15.2-6.2c19.5-1.5,40.3,0.6,56,12.2c9.4,6.9,16.2,16.7,23.6,25.7
			c10,12.1,21.4,23,33.9,32.5c4.8,3.7,10.2,7.6,11.7,13.5c1.4,5.4-1,11.3-5,15.2s-9.2,6.4-14.4,8.3c-17.9,6.5-37.5,8.5-56.3,5.6
			L191.7,254.3z"/>
	</g>
	<g id="facenNeck">
		<g>
			<path class="st0" d="M216.6,236.5c-20.6-14-36.5-34.6-44.7-58.1c-6-17.2-8-35.7-14.3-52.9c-7.5-20.4-21-38.7-24.5-60.1
				c-0.5-3.1-0.7-6.5,1.2-9c1.6-2.1,4.3-2.9,6.9-3.5c7.1-1.7,14.9-2.4,21.4,1c3.3,1.7,6,4.4,8.6,7.1c22.5,23.4,41.2,50.6,54.9,80
				c4,8.6,7.7,17.5,12.6,25.7c8.1,13.5,19.4,24.8,27.2,38.5c1.2,2.1,2.3,4.4,2.3,6.8c-0.1,3.6-2.8,6.6-5.5,9c-6.3,5.6-13.5,10-21.4,13
				L216.6,236.5z"/>
		</g>
		<g id="face">
			<g>
				<path class="st0" d="M164.7,59.1c-2.8-2.9-6.4-4.9-10-6.8c-10.3-5.4-21.6-9.9-33.2-9.6s-23.8,6.6-28,17.5
					c-2.3,5.9-2.2,12.8-5.5,18.2c-2.1,3.3-5.3,5.8-7.6,8.9c-3.7,4.9-5.1,11.5-3.7,17.6c0.5,2.2,1.5,4.5,3.4,5.6c1,0.6,2.2,0.8,3.4,0.9
					c4,0.2,7.7-1.5,11.3-3.2c16.2-7.6,32.4-15.1,48.6-22.7c4.6-2.1,9.3-4.3,13-7.8c3.7-3.4,6.5-8.3,6.1-13.4L164.7,59.1z"/>
			</g>
			<g id="leftEar">
				<path class="st0" d="M131.4,51c12.5-5.6,24.1-13.1,34.4-22c2.5,5,1.9,11.2-0.9,16s-7.5,8.3-12.7,10.4c-5.2,2.1-10.8,2.8-16.4,3
					L131.4,51z"/>
			</g>
			<g class="st1" id="rightEar">
				<path class="st0" d="M110.4,47.1c-8-0.6-15.8-3.1-22.5-7.3c0.5,4,2.4,7.8,5.4,10.4c3,2.7,6.9,4.2,10.9,4.3L110.4,47.1z"/>
			</g>
			<g>
				<path class="st0" d="M130.7,49.4c3.2-7.7,5.9-15.5,8.1-23.5c0.2-0.7,0.4-1.4,0.3-2c-0.2-1.1-1.1-2-2.1-2.5c-1-0.5-2.2-0.6-3.3-0.7
					c-0.9-0.1-2.1-0.1-2.7,0.6c-0.3,0.4-0.4,0.8-0.5,1.3c-2.1,9-4,18-5.8,27L130.7,49.4z"/>
			</g>
			<g class="st1">
				<path class="st0" d="M118.5,49.1c2.4-7,4.3-14.1,5.8-21.3c0.1-0.5,0.2-1.2-0.3-1.5c-0.3-0.2-0.6-0.2-0.9-0.2c-1.1,0-2.3,0-3.4,0
					c-0.5,0-1.1,0-1.6,0.3c-0.4,0.4-0.6,1-0.7,1.5c-1.6,7.5-2.8,15.1-3.7,22.7L118.5,49.1z"/>
			</g>
		</g>
	</g>
</g>

<g>
	<path class="st0" d="M389.3,266.3c2.4,2.9,3.7,6.6,4.6,10.3c5,22.4-8.4,45.8-3.8,68.2c1.2,5.6,3.4,10.9,4.7,16.5
		c1.9,7.8,2,15.8,1.9,23.8c-0.2,29.7-2.2,59.4-4.2,89c-0.1,1.3-0.2,2.6-0.9,3.7c-1,1.5-3,2.1-4.8,2.5c-3.2,0.7-6.5,1.5-9.7,0.9
		c-3.2-0.6-6.4-2.9-7-6.1c-0.2-1.3,0-2.7,0.2-4.1c3.9-23.6,6.3-47.5,7.4-71.4c0.4-8.5,0.6-17.2-1.7-25.5c-1.8-6.4-5-12.4-8.6-18
		c-14.2-22.7-34-43-40-69.1L389.3,266.3z"/>
</g>
<g class="st1">
	<path class="st0" d="M345.6,281.6c2.1,20.9,6.3,41.5,12.7,61.5c3.2,9.9,6.9,19.9,6.9,30.3c0,5.5-1,10.9-2,16.3
		c-3.9,22.5-6.2,45.2-6.8,68.1c-0.1,4.8-0.7,10.5-4.9,12.8c-1.7,0.9-3.6,1.1-5.5,1.2c-2.5,0.1-5.1-0.1-7.6-0.5
		c-1.9-0.3-3.9-0.8-5.2-2.3c-2.2-2.5-1.1-6.5,0-9.7c9-25.3,12.8-52.5,10.9-79.2c-0.8-10.6-0.6-21.8-7.5-29.9
		c-3.4-4-6.8-7.1-10.7-10.6c-11.9-10.8-10.4-34.6-14.7-50.1L345.6,281.6z"/>
</g>
<g class="st1">
	<path class="st0" d="M189.8,248.9c-0.2,23.9,7.6,46.9,11,70.5c1.3,8.5,1.9,17.2,2.6,25.8c1,12.3,2,24.6,3,36.8
		c0.9,11.3,1,22.7,1.1,34.1c0.1,14.6-0.4,29.2-1.8,43.8c-0.1,1.2-0.2,2.6,0.3,3.7c0.9,1.7,2.9,2,4.7,2.2c4.5,0.4,15.5,0.1,17.6-4.4
		c1-2.3,0.8-5,0.3-7.5c-1.1-6.6-1.3-12.8-2.3-19.3c-3.9-24.3-4.2-45.1-3.9-67.8c0.1-5.5,2-10.9,2-16.4c0.1-6.5-0.7-13.1-0.4-19.6
		c0.5-8.3,2.2-16.6,3.1-24.9c1.3-11.4-3.6-22.8-2.3-34.2L189.8,248.9z"/>
</g>
<g>
	<path class="st0" d="M261.2,284.7c-0.6,26.8-10.3,43-11,69.8c-0.1,5.6,0.6,12.1,0,17.6c-0.7,6-1.1,11.8-1.9,17.8
		c-1.2,9.7-1,24.5-0.8,34.2c0.4,15.5,3.5,31,3.8,46.6c0,1.3,0.1,2.8-0.5,3.9c-0.7,1.3-1.9,2-3.2,2.6c-3.5,1.6-7.3,2.3-11.1,2.1
		c-3.3-0.2-7-1.3-8.8-4.4c-1.8-3-1.3-7-0.9-10.6c0.7-5.8,1.3-11.6,1.7-17.4c1.5-21.9,0.7-43.9-0.2-65.8c-0.3-6.6-0.5-10.2-0.8-16.7
		c-0.3-7.3-0.8-12.7-1.8-20c-1.1-7.6-5.9-20-7.5-27.6c-3.4-16-4.9-32.4-4.6-48.8L261.2,284.7z"/>
</g>
</g>
</svg>
