<?xml version="1.0" standalone="no"?>
<!DOCTYPE svg PUBLIC "-//W3C//DTD SVG 20010904//EN"
 "http://www.w3.org/TR/2001/REC-SVG-20010904/DTD/svg10.dtd">
<svg version="1.0" xmlns="http://www.w3.org/2000/svg"
 width="300.000000pt" height="300.000000pt" viewBox="0 0 300.000000 300.000000"
 preserveAspectRatio="xMidYMid meet">
<metadata>
Created by potrace 1.10, written by Peter Selinger 2001-2011
</metadata>
<g transform="translate(0.000000,300.000000) scale(0.100000,-0.100000)"
fill="#000000" stroke="none">
<path d="M80 2550 l0 -220 140 0 140 0 0 55 0 55 285 0 285 0 0 -546 0 -545
-90 6 -90 5 0 -150 0 -150 345 0 c190 0 348 0 351 0 4 0 6 66 6 148 l0 147
-86 -3 -86 -2 0 545 0 545 285 0 285 0 0 -55 0 -55 148 0 147 0 0 220 0 220
-1032 0 -1033 0 0 -220z m2025 -5 l0 -180 -99 -3 c-106 -3 -126 4 -126 44 0
13 -9 33 -20 44 -19 19 -33 20 -295 20 -262 0 -276 -1 -295 -20 -20 -20 -20
-33 -20 -555 0 -617 -9 -566 103 -575 l62 -5 0 -110 0 -110 -310 0 -310 0 0
110 0 110 63 5 c110 9 102 -35 102 580 l0 529 -26 20 c-26 20 -39 21 -295 21
-256 0 -270 -1 -289 -20 -11 -11 -20 -31 -20 -44 0 -39 -21 -47 -117 -44 l-88
3 -3 170 c-1 93 0 175 2 182 4 11 193 13 993 11 l988 -3 0 -180z"/>
<path d="M443 2357 c-2 -4 -3 -115 -2 -246 1 -131 0 -242 -3 -247 -31 -53 -12
-132 60 -259 l57 -100 0 -120 c-1 -111 -3 -127 -34 -210 -43 -116 -43 -143 -1
-201 l33 -46 -18 -57 c-9 -31 -33 -86 -52 -123 l-35 -66 28 -41 c14 -23 28
-41 30 -41 2 0 27 18 56 40 70 53 193 117 251 130 l46 10 113 -74 c148 -97
313 -182 476 -245 l53 -21 9 26 c24 63 23 99 -5 132 -26 31 -28 72 -3 72 17 0
70 -40 130 -98 46 -45 61 -54 83 -50 21 5 28 1 36 -19 5 -13 9 -37 9 -52 0
-28 2 -29 63 -33 76 -5 155 -39 224 -95 43 -35 60 -43 93 -43 l40 0 0 44 0 43
71 33 c51 23 80 31 103 27 44 -7 138 -64 222 -135 l72 -60 43 9 c24 6 62 21
85 34 44 26 114 93 114 110 -1 5 -33 30 -72 54 -88 55 -218 157 -218 172 0 6
27 22 59 37 37 16 62 34 66 47 12 42 17 210 6 238 -9 23 -16 27 -51 27 -37 0
-42 -3 -51 -30 -10 -28 -14 -30 -65 -30 -55 0 -94 -22 -94 -53 0 -22 -44 -57
-72 -57 -29 0 -64 37 -75 78 -8 34 13 98 40 117 12 8 34 15 48 15 22 0 29 6
34 30 3 16 3 49 0 73 -4 25 -3 47 2 50 6 4 8 78 6 179 l-4 173 -377 2 -377 2
-3 24 c-2 13 22 80 52 149 99 221 124 372 88 517 -12 45 -32 101 -44 123 l-23
39 -208 2 -207 2 0 -467 0 -468 90 0 90 0 0 -225 0 -225 -425 0 -425 0 0 226
0 225 88 -2 87 -2 0 467 0 467 -203 2 c-112 1 -206 -1 -209 -6z m361 -43 c14
-13 16 -65 16 -417 0 -221 -4 -407 -8 -413 -4 -6 -31 -14 -61 -17 -68 -8 -98
-28 -106 -69 -4 -18 -5 -118 -3 -221 3 -185 4 -189 27 -208 22 -18 45 -19 435
-19 401 0 413 1 434 20 21 20 22 27 22 235 0 202 -1 216 -20 235 -15 15 -33
20 -75 20 -43 0 -56 4 -65 19 -6 13 -10 164 -10 424 0 339 2 406 14 416 11 9
62 11 176 9 149 -3 162 -5 173 -23 52 -88 71 -249 43 -367 -22 -90 -43 -151
-91 -254 -21 -43 -40 -98 -42 -121 -5 -35 -1 -45 20 -67 l26 -26 344 0 c265 0
347 -3 355 -13 7 -8 9 -67 7 -162 -2 -83 -4 -171 -4 -198 0 -45 -2 -48 -46
-74 -52 -32 -75 -73 -75 -133 0 -77 47 -130 115 -130 28 0 43 8 75 41 22 23
40 45 40 49 0 5 24 12 54 15 40 5 60 14 76 32 34 39 45 25 48 -63 3 -99 -4
-121 -53 -148 -56 -32 -81 -69 -67 -100 11 -24 117 -114 183 -154 19 -12 44
-31 54 -42 18 -20 18 -21 -5 -45 -28 -30 -101 -65 -135 -65 -16 0 -51 20 -93
54 -83 66 -142 103 -195 122 -36 13 -47 12 -96 -2 -75 -21 -130 -58 -147 -100
-8 -19 -18 -34 -22 -34 -4 0 -30 17 -59 38 -64 49 -129 79 -201 96 -48 10 -59
17 -72 44 -18 37 -47 61 -75 62 -12 0 -39 18 -60 41 -52 53 -118 99 -144 99
-26 0 -61 -37 -61 -64 0 -12 9 -36 20 -54 21 -35 19 -82 -5 -82 -28 0 -229 92
-354 162 -19 11 -80 49 -136 85 -93 60 -103 64 -145 60 -62 -7 -135 -38 -230
-97 -44 -28 -85 -48 -90 -45 -15 9 -12 37 8 70 28 46 62 142 62 176 0 17 -14
56 -32 88 l-31 57 26 70 c78 203 73 373 -13 500 -46 66 -73 143 -65 184 4 19
9 138 12 264 2 145 8 235 15 243 17 21 291 18 312 -3z"/>
<path d="M2745 654 c-34 -37 -33 -78 4 -115 81 -80 199 33 121 116 -33 35 -92
35 -125 -1z m118 -16 c22 -27 22 -49 -4 -82 -39 -50 -119 -22 -119 43 0 63 81
89 123 39z"/>
<path d="M2778 599 c-2 -22 0 -43 4 -45 4 -3 8 4 8 15 0 27 12 27 28 1 17 -27
36 -26 20 1 -10 17 -10 23 0 26 6 3 12 13 12 24 0 15 -7 19 -34 19 -32 0 -34
-2 -38 -41z"/>
</g>
</svg>
