<?xml version="1.0" encoding="utf-8"?>
<!-- Generator: Adobe Illustrator 24.0.0, SVG Export Plug-In . SVG Version: 6.00 Build 0)  -->
<svg version="1.1" id="Layer_1" xmlns="http://www.w3.org/2000/svg" xmlns:xlink="http://www.w3.org/1999/xlink" x="0px" y="0px"
	 viewBox="0 0 500 500" style="enable-background:new 0 0 500 500;" xml:space="preserve">
<style type="text/css">
	.st0{fill:#FFFFFF;}
	.st1{opacity:0.7;}

	#leftEar, #rightEar, #face, #tail {
	  transform-box: fill-box;
	  -webkit-backface-visibility: hidden;
	}

</style>
<filter id="dropshadow" height="130%">
  <feGaussianBlur in="SourceAlpha" stdDeviation="5"/>
  <feComponentTransfer>
    <feFuncA type="linear" slope="0.3"/>
  </feComponentTransfer>
  <feMerge> 
    <feMergeNode/> <!-- this contains the offset blurred image -->
    <feMergeNode in="SourceGraphic"/> <!-- this contains the element that the filter is applied to -->
  </feMerge>
</filter>
<g style="filter:url(#dropshadow)">
<g>
	<path class="st0" d="M328.1,160.2c-12.5-7.3-28.8-7.6-41.5-0.7c-16.6-10-38.3-11.1-55.8-2.8c-11.3-11.3-29.9-14.3-44.2-7.3
		c-2.7,1.3-5.3,3-8.2,3.5c-3.3,0.6-6.6-0.3-9.9-0.8c-21.6-3.3-44.5,11.9-49.8,33.1c-16.6,0.4-29.8,16-32.9,32.4
		c-3.1,16.4,1.7,33.1,7.3,48.8c0.8,2.2,1.6,4.4,1.1,6.7c-0.3,1.8-1.4,3.3-2.2,4.9c-4,8.2-1.5,17.8,1,26.6c1.3,4.4,2.8,9.2,6.7,11.6
		c1.4,0.9,3.2,1.5,4.1,2.9c0.8,1.2,0.9,2.8,1.1,4.2c1.2,7.5,7.4,13.3,14.3,16.6c17.8,8.6,41.4,2.3,52.6-14
		c25.2,15,59.3,13.1,82.7-4.6c14.4,8.7,31.1,14.8,47.7,12.8c16.6-2.1,32.8-14.1,35.5-30.7c8.6,3.6,19.5,0.1,24.4-7.7
		c4.9-7.9,3.3-19.2-3.6-25.4c9.2,2.2,19.7,2.5,27.5-2.9c7.8-5.4,11-17.9,4.3-24.6c9.6-1.7,15.7-13.7,11.3-22.5
		c3.1,0.4,6.3-2.5,6.2-5.6c-0.1-3.2-3.4-5.9-6.5-5.3c5.4-5.5,1.4-15.6-5.5-18.9c-6.9-3.3-15-2-22.6-0.7c3.3-6.9-3.8-16.1-11.3-14.7
		c0.2-5.6-1.4-11.4-7.8-14.9C347.3,156.3,335.7,157.7,328.1,160.2"/>
</g>
<g>
	<path class="st0" d="M141.2,332.6c-1.5,11.8,1.6,23.7,6.1,34.6c4.5,11,10.4,21.3,15.2,32.1c0.6,1.4,1.2,3,0.8,4.6
		c-0.8,3-4.8,3.6-7.9,3.6c-7.9,0-16.4-0.3-22.6-5.2c-6.7-5.2-8.9-14.1-10.5-22.4c-3.8-19.4-6.6-39-8.2-58.8
		c-0.1-1.1,0.2-2.6,1.2-2.6L141.2,332.6z"/>
</g>
<g>
	<path class="st0 st1" d="M172.2,306.3c2,23.6,9.6,46.3,17.5,68.6c1,2.7,1.8,6-0.1,8.1c-1.7,1.8-4.5,1.7-7,1.4
		c-4.6-0.5-9.6-1.3-12.9-4.5c-3-2.9-4-7.2-4.8-11.2c-3.8-18.8-6.1-37.9-6.9-57.1L172.2,306.3z"/>
</g>
<g>
	<path class="st0" d="M309.4,308.7c0.6,11.8,1.6,18.8,0.7,32.1c-0.4,5.3,0.4,14.9,0.7,20.2c0.9,17.3,5.5,30.3,9.8,47
		c0.3,1,0.5,2.2,0.1,3.2c-0.8,2.2-3.8,2.3-6,2c-4-0.6-14.4-2.5-18.4-6.6c-2.4-2.5-5.1-5.8-5.3-9.2c-0.6-10.8,1.4-22,1.5-32.9
		c0.1-15.8-3.7-31.7-10.8-45.8L309.4,308.7z"/>
</g>
<g>
	<path class="st0 st1" d="M334.8,295.5c-1.1,5.4-1,10.9-0.8,16.4c0.9,22.6,9.8,44.9,17.7,66.1c2.2,5.8,3.2,11.4,0.6,13.2
		c-2,1.4-3.9,1.8-10.5,1.1c-6.5-0.7-11.1-2.1-13.1-3.8c-2-1.7-3.2-3.5-4-7.1c-0.8-3.6-2.9-17.2-3.6-26.9c-1-13.4-4.1-26.7-9.1-39.2
		L334.8,295.5z"/>
</g>
<g id="face">
	<g>
		<path class="st0" d="M381.9,145c7.3,3.3,12.7,8.7,17.6,16.1c4.9,7.3,12.9,19.7,14.5,23.8c4.8,12.1,8.6,14.1,16,24.8
			c6.9,9.1-4.3,18.2-16.4,19.7c-12.1,1.6-25.9,0.1-45.1-5.9c-10.5-3.3-21.4-7.9-27.7-16.9c-2.1-3-3.6-6.4-4.9-9.9
			c-3.4-9.3-5-17.6-1.3-29.2C338.2,155.8,364.3,138.1,381.9,145z"/>
	</g>
	<g>
		<path class="st0" d="M313.3,163.6c0.2-8.7,5.5-17.1,13.3-21.1c7.7-4,17.6-3.4,24.8,1.5c-0.2-5.3,8.6-10.9,13.7-12.3
			c8.9-2.6,15.6-3.5,24.2,0c8.6,3.5,15.5,14.9,13.6,24c5.2-2.9,12.2-1.1,16.3,3.3c4.1,4.4,5.4,10.8,4.7,16.7
			c-0.8,5.9-3.5,11.4-6.7,16.4c5.4,9,4.8,21.2-1.4,29.7s-17.7,12.7-27.9,10.3L313.3,163.6z"/>
	</g>
	<g id="leftEar">
		<path class="st0 st1" d="M381.7,144.6c-1.8-4-0.8-8.7,1.6-12.4s5.8-6.4,9.4-8.9c7.1-5,14.6-9.4,22.4-13.2c4.6,16.4-0.9,35.2-13.7,46.5
			L381.7,144.6z"/>
	</g>
	<g id="rightEar" style="filter:url(#dropshadow)">
		<path class="st0" d="M320.5,182.6c-14.1-2.3-29,2.3-39.5,12c-3,2.8-5.8,6.1-9.7,7.6c16.5,11.6,38.3,15.2,57.7,9.7L320.5,182.6z"/>
	</g>
	<g>
		<path class="st0" d="M323.8,181.8c-2.1,0.3-6.7,2.8-6.9,3.2c-0.1,0.4,6,22.6,6.9,23.8c2.3,3.1,6.4,4.1,10.2,4.2
			c0.5-7.9-0.7-15.9-3.7-23.2L323.8,181.8z"/>
	</g>
</g>
<g id="tail">
	<path class="st0" d="M90.5,221c-7,7.6-15.6,13.8-25.1,18.1c-2.4,1.1-5,2.3-6.1,4.6c-0.4,1-0.6,2.1-0.5,3.2c0.4,4.2,4.1,7.7,8.2,8.8
		c4.1,1.1,8.5,0.3,12.5-1.3c7-2.6,13-7.2,18.9-11.7L90.5,221z"/>
</g>
</g>
</svg>
